<?xml version="1.0" encoding="utf-8"?>
<!-- Generator: Adobe Illustrator 16.0.0, SVG Export Plug-In . SVG Version: 6.00 Build 0)  -->
<!DOCTYPE svg PUBLIC "-//W3C//DTD SVG 1.1//EN" "http://www.w3.org/Graphics/SVG/1.1/DTD/svg11.dtd">
<svg version="1.1" id="Layer_1" xmlns="http://www.w3.org/2000/svg" xmlns:xlink="http://www.w3.org/1999/xlink" x="0px" y="0px"
	 width="800px" height="800px" viewBox="0 0 800 800" enable-background="new 0 0 800 800" xml:space="preserve">
<ellipse fill="#FFFFFF" cx="401.333" cy="401.52" rx="401.127" ry="396.131"/>
<path fill="#989898" d="M81.891,641.141c0.089,0.113,2.214,2.834,2.296,2.952c25.794-87.5,62.449-178.908,92.598-265.129
	c30.525-87.286,97.934-90.217,180.458-78.934C368.07,275.048,480.227,13.78,473.167,11.781
	C434.673,0.867,359.143,1.007,318.926,9.264C200.795,33.527,89.791,122.649,39.387,228.336
	C3.741,303.082-12.435,421.281,11.631,501.644C26.536,551.398,51.001,602.324,81.891,641.141z"/>
<path fill="#5C5C5C" d="M437.867,289.427c0,0,97.538-261.018,97.66-261.329c5.645-2.917,60.809,26.836,66.147,30.159
	c27.447,17.076,53.185,34.366,76.567,56.663c56.366,53.748,95.611,122.89,113.814,197.392
	c21.394,87.56,8.359,181.761-30.137,262.947c-11.118,23.446-25.757,45.367-41.433,66.25
	c-61.31,81.67-132.538,120.344-232.904,146.956c-55.33,14.673-124.286,9.185-184.927-2.897
	c-28.941-5.768-185.391-66.857-168.963-111.893c38.337-100.099,72.576-179.065,110.456-279.331
	c7.478-19.783,25.945-31.337,46.455-35.878c22.021-4.875,45.218-3.926,67.544-2.014c35.78,3.064,71.565,5.926,107.451,7.539
	c25.729,1.155,51.576-4.311,77.197-0.228c35.946,5.725,30.888,33.358,20.23,60.681c-7.215,18.49-16.697,36.148-26.53,53.439
	c-14.855,26.123-40.21,26.5-67.415,26.726c-24.353,0.2-48.769,3.537-73.103,2.813c-7.602-0.227-23.459-0.677-28.229-8.303
	c-13.141-21.28,21.526-77.46,28.519-99.734c-7.1-1.008-68.709-5.997-69.968-2.517c-0.002,0.007-46.417,128.236-46.417,128.236
	s-21.424,48.524,32.133,49.39l227.608,1.729c0,0,49.986-9.529,65.161-75.38l52.66-143.832c0,0,21.425-56.321-35.701-54.588
	l-183.877-0.866V289.427L437.867,289.427z"/>
</svg>
